<?xml version="1.0" encoding="utf-8"?>
<!-- Generator: Adobe Illustrator 27.5.0, SVG Export Plug-In . SVG Version: 6.00 Build 0)  -->
<svg version="1.1" xmlns="http://www.w3.org/2000/svg" xmlns:xlink="http://www.w3.org/1999/xlink" x="0px" y="0px"
	 viewBox="0 0 500 500" style="enable-background:new 0 0 500 500;" xml:space="preserve">
<g id="BACKGROUND">
	<rect style="fill:#EDF0F7;" width="500" height="500"/>
</g>
<g id="OBJECTS">
	<ellipse style="fill:#D3D8EB;" cx="226.86" cy="443.181" rx="132.841" ry="23.073"/>
	<path style="fill:#292F44;" d="M435.086,281.578c-0.107-0.808-0.762-1.415-1.179-2.115c-0.514-0.866-0.666-1.892-0.967-2.853
		c-0.721-2.308-2.304-4.23-3.851-6.089c-0.887-1.065-1.785-2.14-2.892-2.973c-1.282-0.963-2.828-1.57-4.422-1.74
		c-8.813-5.778-15.343-13.629-23.383-19.533c-2.154-1.583-4.449-3.039-7.004-3.822c-2.14-0.656-4.397-0.82-6.628-1.011
		c-6.095-0.52-12.167-1.268-18.238-2.016c-5.284-0.651-10.718-1.35-15.372-3.936c1.126-5.827,2.226-11.346,3.326-16.863
		c0.232-1.167,0.465-2.337,0.555-3.523c0.189-2.529-0.293-5.105-1.385-7.395c-0.092-1.427-0.712-2.633-1.483-3.636
		c-0.769-1.003-1.703-1.877-2.416-2.92c-2.017-2.949-2.016-6.785-3.045-10.207c-1.303-4.335-4.267-7.995-5.808-12.252
		c-1.218-3.365-1.508-6.993-2.475-10.439c-0.251-0.896-0.55-1.785-0.652-2.709c-0.094-0.833-0.026-1.672,0.053-2.506
		c0.233-2.469,0.571-4.929,1.014-7.37c0.222-1.855-0.115-3.695-0.927-5.248c-0.814-1.55-2.074-2.833-3.476-3.882
		c-0.733-0.547-1.54-1.072-1.951-1.888c-0.454-0.897-0.336-1.987,0.014-2.928c0.13-0.351,0.297-0.7,0.571-0.957
		c0.664-0.622,1.699-0.517,2.604-0.449c3.01,0.223,6.08-0.44,8.728-1.886c1.843-1.006,3.629-2.423,5.728-2.424
		c0.637-0.001,1.267,0.133,1.898,0.217c2.244,0.297,4.567-0.057,6.631-0.986c0.295-0.132,0.588-0.278,0.904-0.352
		c0.675-0.159,1.383,0.022,2.074-0.039c1.713-0.152,2.917-1.695,3.902-3.104c0.494-0.707,0.999-1.434,1.22-2.268
		c0.224-0.833-0.113-2.056-0.724-2.667c0.325,0.131,0.542-0.331,0.816-0.549c0.401-0.319,0.992-0.086,1.417,0.201
		c0.423,0.287,0.895,0.64,1.392,0.522c0.416-0.099,0.698-0.524,0.735-0.95c0.036-0.426-0.13-0.847-0.352-1.213
		c-0.501-0.831-1.278-1.454-2.07-2.014c-4.534-3.206-9.965-4.84-14.946-7.297c0.831-0.382,1.817-0.735,2.802-1.089
		c3.867-1.385,7.832-2.829,10.92-5.538c3.388-2.97,5.391-7.172,7.288-11.258c0.942-0.957,1.525-2.372,2.054-3.717
		c0.452-1.146,0.903-2.292,1.295-3.459c0.186-0.558,0.361-1.135,0.328-1.722c-0.035-0.586-0.321-1.193-0.846-1.455
		c-0.76-0.381-1.656,0.061-2.505,0.112c-1.863-1.243-3.907-1.733-5.94-1.876c-2.033-0.142-4.072,0.048-6.102,0.237
		c-5.557,0.518-11.114,1.036-16.672,1.554c-2.803-0.059-4.934-0.577-6.892-1.472c-1.801-0.821-3.589-2.145-4.014-4.077
		c-0.068-0.312-0.107-0.652-0.311-0.898c-0.44-0.526-1.303-0.303-1.925-0.588c-0.506-0.231-0.793-0.769-1.237-1.106
		c-0.771-0.586-1.84-0.466-2.809-0.463c-2.689,0.008-5.24-1.085-7.838-1.778c-5.178-1.383-10.63-1.184-15.986-0.975
		c-3.353-8.217-4.576-16.706-8.379-24.158c-0.444-0.868-0.935-1.738-1.671-2.377c-0.736-0.639-1.768-1.015-2.704-0.742
		c-1.325,0.385-1.986,1.837-2.432,3.143c-0.648,1.898-1.198,3.829-1.646,5.784c-1.361-1.896-2.594-4.033-3.829-6.17
		c-0.504-0.873-1.016-1.757-1.706-2.49c-0.692-0.735-1.593-1.318-2.594-1.439c-0.231-0.027-0.482-0.026-0.677,0.1
		c-0.218,0.14-0.32,0.402-0.393,0.65c-0.497,1.681-0.305,3.477-0.207,5.226c0.236,4.187-0.085,8.407-0.955,12.51
		c-0.584,2.761-1.415,5.472-1.835,8.263c-0.421,2.791-0.411,5.724,0.647,8.341c-0.995,2.25-1.497,4.241-1.452,6.223
		c0.018,0.857,0.136,1.716,0.048,2.568c-0.157,1.482-0.932,2.829-1.822,4.024c-0.638,0.859-1.371,1.719-1.549,2.774
		c-0.089,0.528-0.03,1.069-0.025,1.604c0.011,1.252-0.267,2.487-0.349,3.736c-0.082,1.249,0.057,2.581,0.801,3.588
		c-7.049,10.846-11.223,23.458-12.018,36.295c-0.117,1.884-0.105,3.951,1.078,5.421c0.646,0.802,1.642,1.446,1.762,2.469
		c0.075,0.632-0.218,1.241-0.378,1.857c-0.25,0.967-0.166,2.017,0.236,2.932c-1.418,2.048-3.081,3.94-4.73,5.815
		c-1.249,1.419-2.509,2.848-4.012,3.994c-0.922,0.702-1.93,1.292-2.827,2.025c-1.144,0.935-2.091,2.085-3.029,3.228
		c-1.376,1.674-2.75,3.35-4.126,5.025c-0.474,0.577-0.96,1.178-1.154,1.898c-0.277,1.025,0.078,2.101,0.128,3.16
		c0.095,2.009-0.907,4.079-0.235,5.973c-1.12,7.329-4.519,13.96-8.95,19.562c-4.431,5.603-9.88,10.302-15.295,14.963
		c-11.751,10.119-23.503,20.237-35.254,30.355c-2.27,1.954-4.545,3.914-6.548,6.141c-1.611,1.791-3.039,3.748-4.733,5.464
		c-4.723,4.778-11.413,7.436-18.128,7.634c-2.669,0.078-5.383-0.22-7.859-1.22c-7.105-2.866-10.822-10.849-11.856-18.441
		c-0.904-6.648-0.261-13.503,1.867-19.867c2.877-7.222,5.278-15.167,5.767-23.299c0.491-8.132-0.991-16.461-4.857-23.632
		c-3,2.271-6.636,4.799-9.637,7.07c-0.091-0.336-0.181-0.671-0.272-1.005c-0.604,0.841-1.206,1.68-1.81,2.522
		c-0.196,0.274-0.432,0.572-0.766,0.612c-0.318,0.038-0.634-0.174-0.944-0.101c-0.259,0.061-0.431,0.297-0.576,0.519
		c-1.128,1.707-2.117,3.505-2.956,5.371c-0.32-0.792-0.549-1.437-0.87-2.033c-3.388,4.105-5.519,9.234-6.036,14.532
		c-0.636-0.46-0.979-0.824-1.403-0.95c-1.254,3.775-1.984,7.724-2.16,11.697c-0.667-0.508-1.245-1.133-1.698-1.837
		c-0.303,2.195-0.367,4.425-0.189,6.635c-0.705,0.033-1.337-0.275-1.97-0.582c0.129,1.268,0.259,2.536,0.388,3.804
		c0.054,0.527,0.131,1.104,0.523,1.46c-0.877-0.371-1.721-0.82-2.519-1.341c0.388,1.959,1.168,3.839,2.282,5.496
		c-1.038,0.344-1.825,0.436-2.584,0.327c0.191,1.316,0.885,2.551,1.908,3.4c-0.728-0.002-1.455,0.038-2.178,0.12
		c0.517,1.44,1.324,2.774,2.358,3.902c-0.711-0.006-1.423-0.115-2.103-0.323c0.493,1.606,1.189,3.149,2.066,4.582
		c-0.935,0.069-1.79-0.087-2.645-0.244c0.56,1.603,1.409,3.103,2.493,4.409c-0.7,0.131-1.421,0.155-2.128,0.066
		c0.715,1.206,1.536,2.348,2.45,3.411c-0.729,0.205-1.48,0.663-1.656,1.264c-0.177,0.602,0.039,1.242,0.272,1.825
		c0.437,1.09,0.94,2.154,1.507,3.184c-0.399-0.289-1.016-0.022-1.213,0.427c-0.199,0.45-0.066,0.984,0.184,1.407
		c0.25,0.423,0.607,0.771,0.904,1.164l-1.303-0.143c1.41,2.89,3.617,5.385,6.313,7.135c-0.854,0.678-2.32,1.425-3.362,1.744
		c1.335,1.879,3.212,3.367,5.345,4.238c-0.811,0.191-1.584,0.548-2.255,1.043c1.723,1.877,3.805,3.421,6.099,4.524
		c-0.84,0.365-1.626,0.85-2.332,1.435c1.569,1.137,3.5,1.768,5.439,1.776c-0.395,1.075-1.33,1.8-2.373,2.299
		c3.433,2.079,7.536,3.035,11.534,2.685l-3.955,3.73c1.473,0.856,3.245,1.181,4.925,0.906c-0.391,0.705-0.962,1.312-1.645,1.743
		c1.775,0.389,3.651,0.312,5.388-0.218c-0.804,0.598-1.57,1.25-2.289,1.948c0.568,0.529,1.471,0.311,2.218,0.097
		c0.746-0.215,1.704-0.325,2.158,0.304c0.103,0.143,0.174,0.32,0.324,0.412c0.131,0.082,0.296,0.082,0.451,0.078
		c0.867-0.029,1.731-0.141,2.576-0.338c0.282-0.066,0.575-0.141,0.858-0.079c0.433,0.097,0.728,0.486,1.102,0.725
		c1.1,0.701,2.524-0.017,3.619-0.727c-1.134,2.488-1.063,5.342-1.054,8.038c0.008,2.696-0.155,5.602-1.829,7.716
		c-1.3,1.265-2.815,1.859-3.793,3.021c-0.983,1.166-1.296,2.756-1.383,4.28c-0.221,3.871,0.778,7.826-0.146,11.591
		c-0.451,1.832-1.338,3.527-1.902,5.33c-0.564,1.801-0.777,3.843,0.101,5.516c-1.276,0.938-2.098,2.074-2.521,3.346
		c0.422-0.277,0.939-0.407,1.442-0.363c-0.601,0.814-1.202,1.627-1.803,2.442c0.501,0.062,1.001,0.124,1.501,0.186
		c-1.058,1.165-2.117,2.33-3.174,3.495c0.424-0.17,0.873-0.278,1.328-0.319c-0.395,0.899-0.898,1.75-1.494,2.532
		c0.46-0.356,1.005-0.599,1.576-0.706c-1.113,1.116-2.055,2.402-2.783,3.8c0.614-0.222,1.327-0.151,1.884,0.189
		c-0.808,1.787-1.521,3.083-2.178,4.406c0.445-0.358,1.064-0.49,1.615-0.342c-0.439,0.776-0.877,1.553-1.317,2.33
		c0.419,0.076,0.862,0.007,1.239-0.189c-0.749,1.037-1.373,2.164-1.855,3.348c1.143-0.222,2.316-0.289,3.478-0.199
		c-5.462,6.84-13.464,10.276-21.405,12.841c-2.172,0.701-4.464,1.415-6.031,3.073c-2.211,2.337-2.394,5.861-2.723,9.061
		c-0.563,5.477-1.533,10.805-2.736,16.177c-0.818,3.654-1.736,7.225-1.979,10.795c-0.175,2.557-0.222,5.156-0.979,7.605
		c-0.292,0.943-0.687,1.853-0.986,2.796c-0.389,1.22-0.615,2.491-0.672,3.771c-0.036,0.784,0.043,1.678,0.654,2.171
		c0.511,0.413,1.267,0.428,1.75,0.873c0.658,0.604,0.507,1.656,0.738,2.518c0.29,1.084,1.236,1.897,2.281,2.304
		c1.044,0.408,2.188,0.469,3.309,0.498c2.851,0.072,5.717-0.039,8.544,0.333c0.94,0.123,1.876,0.299,2.823,0.327
		c1.322,0.039,2.635-0.214,3.953-0.33c1.451-0.129,2.93-0.098,4.335-0.483c1.404-0.387,2.771-1.297,3.219-2.683
		c1.068,0.234,1.894,0.416,2.727,0.554c0.132,0.022,0.288,0.036,0.383-0.058c0.11-0.108,0.075-0.291,0.016-0.433
		c-0.558-1.319-2.316-1.559-3.409-2.485c-0.933-0.792-1.338-2.062-2.227-2.904c-0.682-0.646-1.59-0.987-2.39-1.48
		c-0.629-0.388-1.194-0.873-1.825-1.257c-2.374-1.444-5.349-1.309-8.123-1.126c-0.184-1.709-0.373-3.075-0.297-4.442
		c0.091-1.612,0.548-3.18,1.003-4.73c1.527-5.205,3.127-10.554,6.501-14.8c2.382-2.994,5.531-5.283,8.786-7.292
		c3.786-2.335,7.826-4.362,12.169-5.323c6.685-1.479,13.826-0.381,20.334-2.511c-0.474,2.324-2.213,3.899-3.642,5.626
		c-1.429,1.727-2.636,3.977-2.016,6.133c0.265,0.92,0.84,1.717,1.438,2.465c4.159,5.199,9.813,8.939,14.937,13.19
		c4.081,3.388,7.854,7.128,11.621,10.864c1.045,1.037,2.102,2.086,2.865,3.345c0.598,0.986,1.095,2.172,2.16,2.618
		c0.646,0.269,1.378,0.202,2.075,0.129c2.043-0.213,4.085-0.427,6.129-0.639c1.694,0.207,3.33,0.334,4.931,0.07
		c0.817-0.134,1.623-0.368,2.452-0.39c0.778-0.018,1.546,0.153,2.321,0.225c1.831,0.172,3.67-0.206,5.508-0.168
		c0.773,0.016,1.556,0.105,2.312-0.052c0.859-0.177,1.64-0.66,2.509-0.779c0.902-0.121,1.975,0.114,2.605-0.545
		c0.363-0.38,0.443-0.962,0.337-1.477c-0.161-0.775-0.718-1.455-1.445-1.765c0.97-0.143,1.682-0.058,2.395,0.026
		c0.375,0.046,0.894-0.019,0.924-0.396c0.017-0.213-0.155-0.389-0.318-0.527c-0.974-0.825-2.124-1.442-3.351-1.795
		c-0.923-0.265-1.892-0.386-2.775-0.761c-1.768-0.751-3.029-2.45-4.846-3.072c-2.014-0.69-4.204,0.091-6.188,0.862
		c-2.236-0.028-4,0.048-5.765,0.123c-0.801,0.036-1.622,0.067-2.384-0.183c-0.813-0.269-1.488-0.838-2.126-1.408
		c-2.768-2.471-5.283-5.226-7.492-8.207c-1.157-1.56-2.761-3.234-3.16-5.136c-0.338-1.608-0.409-3.284-0.035-4.883
		c1.672-7.132,7.749-12.891,13.654-17.228c4.708-3.457,10.048-6.378,13.343-11.202c1.412-2.066,2.382-4.397,3.605-6.58
		c2.081-3.709,4.939-7.085,5.996-11.204c0.612-2.385,0.592-4.943,1.59-7.194c0.582-1.316,1.49-2.472,2.029-3.805
		c0.894-2.208,0.703-4.684,0.498-7.056c-0.257-2.974-0.514-5.948-0.77-8.921c1.168-3.563,5.221-4.335,8.174-3.034
		c1.15,0.507,2.341,1.28,3.558,0.971c0.669-0.17,1.211-0.645,1.833-0.943c0.956-0.459,2.064-0.484,3.06-0.848
		c2.658-0.973,3.861-3.984,4.76-6.666c0.362-1.084,0.73-2.221,0.538-3.345c-0.259-1.516-1.479-2.71-1.847-4.2
		c3.506-3.091,7.6-6.108,12.359-6.404c3.018-0.187,6.038,0.756,9.043,0.409c2.578-0.297,4.963-1.526,7.517-1.98
		c2.472-0.442,5.027-0.146,7.507-0.535c3.563-0.559,6.744-2.483,9.819-4.369c4.259-2.38,7.733-4.077,10.931-6.224
		c2.442-1.64,4.706-3.531,7.117-5.216c1.812-1.266,3.704-2.415,5.594-3.562c5.109-3.1,10.217-6.201,15.327-9.301
		c0.708-0.43,1.428-0.864,2.224-1.097c0.969-0.281,2.001-0.247,3.004-0.141c5.663,0.598,10.862,3.374,16.432,4.557
		c3.804,0.809,7.735,0.864,11.554,1.603c5.728,1.109,11.294,3.762,17.108,3.272c1.358,0.691,2.554,0.698,3.414,1.275
		c0.585,0.394,0.969,1.021,1.487,1.502c0.815,0.759,1.98,1.126,3.084,0.973c0.517-0.073,1.029-0.251,1.546-0.192
		c0.401,0.047,0.771,0.234,1.131,0.417l3.712,1.9c2.08,1.065,4.235,2.19,5.628,4.065c0.422,0.568,0.764,1.194,1.181,1.768
		c0.955,1.318,2.269,2.325,3.564,3.313c0.484,1.285,1.153,2.717,2.473,3.177c0.937,0.326,1.996,0.07,2.943,0.366
		c1.217,0.381,1.971,1.559,2.923,2.409c1.099,0.982,2.554,1.559,4.028,1.598c0.969,0.024,1.932-0.174,2.902-0.177
		c1.069-0.003,2.156,0.233,3.196-0.014c0.741-0.175,1.401-0.582,2.096-0.895c0.694-0.313,1.484-0.535,2.212-0.313
		c0.686-0.041,1.057,0.343,1.334,0.771c0.127,0.195,0.239,0.404,0.414,0.559c0.175,0.153,0.435,0.239,0.644,0.138
		c0.309-0.147,0.334-0.573,0.289-0.912c-0.089-0.67-0.272-1.326-0.544-1.944c1.065-0.104,1.82,0.19,2.575,0.483
		c0.301,0.117,0.709,0.206,0.893-0.059c0.135-0.196,0.052-0.462-0.04-0.682c-0.388-0.928-0.848-1.827-1.373-2.684
		c-1.144-2.994-2.407-5.749-4.654-7.6c-1.254-1.032-2.754-1.727-4.049-2.707c-1.027-0.776-1.916-1.725-2.976-2.454
		c-1.342-0.923-2.91-1.461-4.335-2.252c-1.783-0.991-3.316-2.368-4.833-3.733l-15.302-13.769c-1.518-1.367-3.049-2.743-4.81-3.777
		c-3.46-2.034-8.67-2.883-12.358-4.467c1.914,0.145,3.801-0.408,5.679-0.81c1.878-0.401,3.893-0.644,5.67,0.083
		c1.072,0.483,1.928,1.081,2.784,1.678c-0.087-0.646-0.176-1.293-0.263-1.939c0.617,0.609,1.254,1.231,2.048,1.579
		c0.5,0.22,1.043,0.323,1.55,0.527c1.596,0.644,2.649,2.216,4.186,2.988c0.231-0.613,0.338-1.272,0.315-1.925
		c2.073,1.558,3.345,3.923,4.832,6.049c0.076,0.111,0.162,0.226,0.289,0.271c0.154,0.053,0.321-0.013,0.468-0.077
		c0.731-0.321,1.462-0.64,2.191-0.96c1.938,1.238,3.548,2.643,4.665,4.421c0.87,1.383,1.477,3.029,2.82,3.96
		c1.288,0.894,3.037,0.957,4.266,1.932c0.516,0.41,0.907,0.958,1.406,1.388c1.351,1.161,3.274,1.309,5.054,1.375
		c0.955,0.036,1.928,0.06,2.851-0.186c0.807-0.217,1.547-0.634,2.345-0.883c0.798-0.25,1.724-0.311,2.42,0.152
		c0.623,0.414,0.987,1.195,1.694,1.441c0.166,0.057,0.385,0.064,0.482-0.083c0.063-0.095,0.049-0.22,0.029-0.334
		c-0.136-0.755-0.44-1.48-0.881-2.108c1.047-0.185,1.809,0.031,2.572,0.246c0.114,0.033,0.251,0.06,0.34-0.018
		C435.099,281.803,435.101,281.682,435.086,281.578z M342.5,117.523c2.857,0.799,4.897,1.573,6.992,2.157
		c1.343,0.374,2.883,0.808,3.477,2.069c-0.945,0.076-1.888,0.152-2.832,0.228c-0.31,0.024-0.632,0.047-0.916-0.076
		c-0.437-0.189-0.661-0.661-0.922-1.059c-0.262-0.397-0.7-0.785-1.157-0.654c-0.254,0.072-0.436,0.285-0.637,0.454
		c-0.203,0.169-0.486,0.302-0.721,0.184c-0.167-0.084-0.254-0.27-0.348-0.432c-0.3-0.519-0.807-0.914-1.385-1.08
		c-0.35-0.101-0.731-0.122-1.05-0.301C342.5,118.729,342.271,118.049,342.5,117.523z M338.983,117.073
		c0.284-0.329,0.717-0.492,1.21-0.475c0.018,0.366-0.021,0.742-0.178,1.075c-0.156,0.332-0.441,0.614-0.796,0.708
		c-0.067,0.019-0.141,0.03-0.208,0.005c-0.057-0.021-0.101-0.066-0.137-0.114C338.611,117.925,338.699,117.401,338.983,117.073z
		 M335.724,117.176c0.036-0.113,0.129-0.197,0.22-0.273c0.305-0.252,0.634-0.477,1.355-0.434c0.03,0.424-0.077,0.888-0.404,1.162
		c-0.328,0.273-0.902,0.251-1.118-0.116C335.717,117.415,335.689,117.289,335.724,117.176z"/>
</g>
</svg>
